<svg width="251" height="86" viewBox="0 0 251 86" fill="none" xmlns="http://www.w3.org/2000/svg">
<path d="M76.4054 36.67C69.201 36.67 64.4451 41.4259 64.4451 48.2065C64.4451 54.9401 69.201 59.696 76.4054 59.696C79.4662 59.696 81.8206 59.0838 83.4686 57.8125V52.3032H83.2332C81.7264 54.2338 79.6074 55.2226 76.8763 55.2226C72.3088 55.2226 69.4835 52.3503 69.4835 48.2065C69.4835 43.9686 72.3088 41.1433 76.8763 41.1433C79.5603 41.1433 81.6793 42.038 83.2332 44.0157H83.4686V38.6006C81.7264 37.3292 79.4662 36.67 76.4054 36.67Z" fill="#528693"/>
<path d="M97.662 36.67C94.3658 36.67 92.1056 37.9884 90.8342 40.5312H90.74L90.5517 37.1408H86.3609V59.2251H91.3522V49.4308C91.3522 44.0628 93.2828 41.4258 97.2382 41.4258C98.6037 41.4258 99.7809 41.8026 100.723 42.4618H100.958V37.5175C100.252 37.0467 99.0746 36.67 97.662 36.67Z" fill="#528693"/>
<path d="M109.655 68.1718L122.887 37.1408H117.754L111.539 53.1508H111.444L105.276 37.1408H99.9079L108.807 58.5188L104.522 68.1718H109.655Z" fill="#528693"/>
<path d="M131.324 36.67C126.003 36.67 122.472 39.4952 122.472 43.8273C122.472 48.0182 124.591 49.8075 130.336 50.2784C133.914 50.5609 134.903 51.2201 134.903 52.6799C134.903 54.2809 133.302 55.3168 130.712 55.3168C127.322 55.3168 124.638 54.2809 122.801 52.3032H122.566V57.5299C124.402 58.9426 127.275 59.696 130.948 59.696C136.457 59.696 139.8 57.012 139.8 52.6799C139.8 48.2065 137.493 46.0405 131.607 45.7109C128.358 45.5225 127.369 44.9574 127.369 43.6861C127.369 42.1322 129.064 41.0491 131.466 41.0491C134.338 41.0491 136.645 41.8496 138.152 43.4035H138.388V38.271C136.787 37.235 134.197 36.67 131.324 36.67Z" fill="#528693"/>
<path d="M154.904 53.9513H154.669C153.774 54.9401 152.691 55.2697 151.514 55.2697C149.348 55.2697 148.076 53.8571 148.076 51.4556V41.4729H154.81V37.1408H148.076V31.0665H143.933L143.226 37.1408H139.177V41.4729H143.085V51.6439C143.085 56.8707 145.769 59.696 150.76 59.696C152.503 59.696 153.868 59.4135 154.904 58.8955V53.9513Z" fill="#528693"/>
<path d="M179.059 59.2251V37.1408H174.915L174.727 40.2957H174.633C173.032 38.0355 170.301 36.67 166.722 36.67C160.412 36.67 155.798 41.52 155.798 48.2065C155.798 54.893 160.412 59.696 166.722 59.696C170.301 59.696 173.079 58.3304 174.68 56.0702H174.774L174.915 59.2251H179.059ZM167.523 55.2226C163.567 55.2226 160.836 52.3032 160.836 48.2065C160.836 44.0157 163.567 41.1433 167.523 41.1433C171.478 41.1433 174.209 44.0157 174.209 48.2065C174.209 52.3032 171.478 55.2226 167.523 55.2226Z" fill="#528693"/>
<path d="M182.772 59.2251H187.763V26.2635H182.772V59.2251Z" fill="#528693"/>
<path d="M191.505 59.2251H196.496V26.2635H191.505V59.2251Z" fill="#528693"/>
<path d="M202.734 27.064C200.851 27.064 199.579 28.3825 199.579 30.266C199.579 32.1495 200.851 33.4209 202.734 33.4209C204.665 33.4209 205.936 32.1495 205.936 30.266C205.936 28.3825 204.665 27.064 202.734 27.064ZM200.238 37.1408V59.2251H205.23V37.1408H200.238Z" fill="#528693"/>
<path d="M208.029 59.2251H227.382V54.893H214.762L227.147 41.1433V37.1408H208.735V41.4729H220.413L208.029 55.2226V59.2251Z" fill="#528693"/>
<path d="M250.762 49.7133V47.2648C250.762 40.8137 246.43 36.67 239.602 36.67C232.868 36.67 228.113 41.4259 228.113 48.2065C228.113 55.0814 233.292 59.696 241.015 59.696C244.499 59.696 247.513 58.8484 249.396 57.3887V52.4444H249.161C247.183 54.328 244.452 55.3168 241.203 55.3168C236.824 55.3168 233.81 53.2449 233.198 49.7133H250.762ZM239.743 41.0491C243.181 41.0491 245.724 42.9798 246.147 45.9934H233.198C233.81 43.0268 236.588 41.0491 239.743 41.0491Z" fill="#528693"/>
<path d="M46.045 37.794L33.76 85.3497L17.8998 75.2317L30.1861 0.706841L48.1103 29.8207L46.045 37.794Z" fill="#BFF6F8"/>
<path d="M12.0629 39.2316L7.8305 68.799L5.44786 67.2821L0.761932 32.8949L12.0629 39.2316Z" fill="#DFFAFB"/>
<path d="M25.4847 19.5678L16.4622 74.3104L9.28352 69.7287L18.0905 8.20408L25.4847 19.5678Z" fill="#CFF8FA"/>
<path d="M57.8066 35.6577L47.6414 74.8351L40.9067 80.4103L35.5387 84.7457L47.0149 40.32L57.8066 35.6577Z" fill="#ACF3F6"/>
</svg>
